# xmcd
# 
# Track frame offsets:
#     150
#     22565
#     46070
#     64832
#     77217
#     93932
#     110904
#     120804
#     137105
#     154175
#     173462
#     185347
# 
# Disc length: 2714
# 
# Revision: 3
# Processed by: cddbd v1.5.2PL0 Copyright (c) Steve Scherf et al.
# Submitted via: fre:ac v1.1beta1pre5
# 
DISCID=890a980c
DTITLE=Steve Earle - El Corazón
DYEAR=1997
DGENRE=12.3-Country-influenced Rock
TTITLE0=Christmas in Washington
TTITLE1=Taneytown
TTITLE2=If You Fall
TTITLE3=I Still Carry You Around
TTITLE4=Telephone Road
TTITLE5=Somewhere out There
TTITLE6=You Know the Rest
TTITLE7=N.Y.C.
TTITLE8=Poison Lovers
TTITLE9=The Other Side of Town
TTITLE10=Here I Am
TTITLE11=Ft. Worth Blues
EXTD=
EXTT0=
EXTT1=
EXTT2=
EXTT3=
EXTT4=
EXTT5=
EXTT6=
EXTT7=
EXTT8=
EXTT9=
EXTT10=
EXTT11=
PLAYORDER=
